HIERARCHY
ROOT Hips
{
	OFFSET 0.000000 0.000000 0.000000 
	CHANNELS 6 Xposition Yposition Zposition Yrotation Zrotation Xrotation 
	JOINT Lumbar
	{
		OFFSET 0.000000 0.000000 0.000000 
		CHANNELS 3 Zrotation Xrotation Yrotation
		JOINT Neck
		{
			OFFSET 0.000000 0.445665 0.000000 
			CHANNELS 3 Zrotation Xrotation Yrotation
			End Site
			{
				OFFSET 0.000000 0.227535 0.000000 
			}
		}
		JOINT RightShoulder
		{
			OFFSET 0.019635 0.377685 0.194865 
			CHANNELS 3 Zrotation Xrotation Yrotation
			JOINT RightElbow
			{
				OFFSET 0.000000 -0.243375 0.000000 
				CHANNELS 2 Zrotation Yrotation
				JOINT RightWrist
				{
					OFFSET 0.000000 -0.264825 0.000000 
					CHANNELS 2 Zrotation Xrotation
					End Site
					{
						OFFSET 0.006600 -0.176220 0.000990 
					}
				}
			}
		}
		JOINT LeftShoulder
		{
			OFFSET 0.019635 0.377685 -0.194865 
			CHANNELS 3 Zrotation Xrotation Yrotation
			JOINT LeftElbow
			{
				OFFSET 0.000000 -0.243375 0.000000 
				CHANNELS 2 Zrotation Yrotation
				JOINT LeftWrist
				{
					OFFSET 0.000000 -0.264825 0.000000 
					CHANNELS 2 Zrotation Xrotation
					End Site
					{
						OFFSET 0.006600 -0.176220 -0.000990 
					}
				}
			}
		}
	}
	JOINT RightHip
	{
		OFFSET 0.052140 -0.069960 0.075570 
		CHANNELS 3 Zrotation Xrotation Yrotation
		JOINT RightKnee
		{
			OFFSET 0.000000 -0.402270 0.000000 
			CHANNELS 1 Zrotation
			JOINT RightAnkle
			{
				OFFSET 0.000000 -0.404085 0.000000 
				CHANNELS 3 Zrotation Xrotation Yrotation
				End Site
				{
					OFFSET 0.204105 -0.089430 0.008415 
				}
			}
		}
	}
	JOINT LeftHip
	{
		OFFSET 0.052140 -0.069960 -0.075570 
		CHANNELS 3 Zrotation Xrotation Yrotation
		JOINT LeftKnee
		{
			OFFSET 0.000000 -0.402270 0.000000 
			CHANNELS 1 Zrotation
			JOINT LeftAnkle
			{
				OFFSET 0.000000 -0.404085 0.000000 
				CHANNELS 3 Zrotation Xrotation Yrotation
				End Site
				{
					OFFSET 0.204105 -0.089430 -0.008415 
				}
			}
		}
	}
}
MOTION
Frames: 17
Frame Time: 0.02
0 0.95578 -1e-05 191.47296 0 -2.99728 9.06063 4.32534 -5.92134 -29.44228 0.32955 -0.81419 38.67575 -11.6179 4.22535 11.79725 81.73541 -1.97699 -4.72032 51.4629 5.99894 -14.73157 19.53636 -102.35875 -17.08774 7.638 -4.51444 6.32223 8.3781 -4.41566 0.92827 -2.65903 -4.18169 2.96188 -0.81092 -11.77477 -16.91107 10.40666 8.30382 11.94664
0.0005 0.95522 0.00183 191.91006 0 -3.18992 8.91458 4.59019 -6.12689 -28.99789 0.37159 -0.99084 37.3085 -11.787 2.29828 11.22603 81.63226 -1.97291 -4.33851 50.15583 6.15861 -15.32146 19.07049 -99.88028 -15.38315 7.42798 -4.55237 6.42617 8.08527 -4.40934 1.00001 -2.66916 -4.20773 3.87422 -0.50246 -11.23683 -19.06785 10.54571 8.37943 12.53299
0.00099 0.95465 0.00367 192.34303 0 -3.38151 8.76978 4.85311 -6.33136 -28.55523 0.41527 -1.16499 35.94218 -11.95723 0.36648 10.65646 81.52764 -1.96969 -3.95787 48.84501 6.31574 -15.89249 18.60125 -97.4148 -13.68805 7.21539 -4.59042 6.52889 7.79512 -4.40351 1.07173 -2.67942 -4.23399 4.77462 -0.19553 -10.70722 -21.2007 10.68277 8.45389 13.113
0.00144 0.95409 0.00554 192.76405 0 -3.5714 8.62899 5.11194 -6.53304 -28.11743 0.46521 -1.33075 34.57324 -12.13413 -1.59201 10.08673 81.4198 -1.96898 -3.57946 47.51719 6.46467 -16.43329 18.11709 -94.9845 -12.013 6.99222 -4.63046 6.62888 7.51219 -4.39711 1.14318 -2.68982 -4.26009 5.63882 0.10886 -10.21454 -23.26469 10.81443 8.5254 13.67477
0.0021 0.9535 0.00726 193.24871 0 -3.77102 8.46752 5.39366 -6.74893 -27.65663 0.48117 -1.54084 33.22662 -12.27634 -3.39593 9.51639 81.33339 -1.95394 -3.19076 46.2924 6.65748 -17.18209 17.71567 -92.37667 -10.23014 6.82717 -4.66136 6.74468 7.19022 -4.39072 1.21503 -2.69891 -4.28547 6.69795 0.42744 -9.53687 -25.7004 10.97616 8.61365 14.33483
0.00231 0.95299 0.00929 193.59806 0 -3.94937 8.34954 5.62584 -6.93495 -27.2431 0.56951 -1.65705 31.82842 -12.49133 -5.53389 8.94889 81.19878 -1.96992 -2.82319 44.8421 6.757 -17.45764 17.13715 -90.14095 -8.67817 6.53795 -4.71059 6.82601 6.95166 -4.38637 1.28666 -2.71112 -4.31339 7.34158 0.71519 -9.24391 -27.3428 11.07313 8.66563 14.78523
0.00124 0.95269 0.01211 193.57168 0 -4.07626 8.35602 5.7299 -7.03681 -26.96842 0.86258 -1.50683 30.29155 -12.92383 -8.6115 8.36542 80.94834 -2.06897 -2.51462 42.7798 6.59504 -16.65301 16.05734 -88.9611 -7.73555 5.8981 -4.82169 6.81877 6.94141 -4.37043 1.35355 -2.7297 -4.34068 6.83187 0.92665 -10.10655 -26.79929 10.99588 8.62201 14.6571
-0.00027 0.95248 0.01523 193.40902 0 -4.1806 8.40552 5.78259 -7.10868 -26.73939 1.22782 -1.26305 28.70038 -13.42676 -12.02505 7.78853 80.64651 -2.19972 -2.22697 40.48585 6.33979 -15.32379 14.80075 -88.15217 -7.03058 5.13443 -4.94933 6.77563 7.0159 -4.35962 1.42095 -2.75189 -4.37203 5.90361 1.10556 -11.34216 -25.45413 10.85242 8.54093 14.31714
-0.00156 0.95224 0.01823 193.31007 0 -4.29056 8.43264 5.85309 -7.1958 -26.484 1.55767 -1.06641 27.12944 -13.88787 -15.27971 7.22341 80.35571 -2.31808 -1.92887 38.28787 6.12905 -14.09125 13.63036 -87.15144 -6.23357 4.4306 -5.06224 6.74444 7.05276 -4.35776 1.49102 -2.77386 -4.4065 5.1695 1.29387 -12.34662 -24.4708 10.73599 8.47393 14.07353
-0.00296 0.95195 0.02117 193.20377 0 -4.41956 8.47208 5.94642 -7.2771 -26.25328 1.89975 -0.84993 25.57682 -14.39232 -18.56665 6.59617 80.11403 -2.42879 -1.63457 36.12832 5.90795 -13.47421 12.43139 -86.2417 -5.36764 3.70848 -5.20564 6.7312 7.08526 -4.30865 1.54925 -2.78968 -4.41985 4.41721 1.50494 -13.60806 -23.49481 10.63204 8.41923 13.82934
-0.00424 0.95179 0.0243 193.08022 0 -4.50411 8.4956 5.98062 -7.36212 -25.98083 2.23183 -0.65298 23.974 -14.82074 -21.85804 6.09976 79.76154 -2.56184 -1.3376 33.83515 5.68812 -11.42894 11.25492 -85.23967 -4.70387 2.99917 -5.28938 6.67264 7.1478 -4.35871 1.63175 -2.81934 -4.47833 3.60537 1.6608 -14.42681 -22.31702 10.48693 8.33019 13.53632
-0.00511 0.95199 0.0279 192.94376 0 -4.4668 8.46864 5.85907 -7.47555 -25.59168 2.53312 -0.52901 22.23801 -15.04359 -25.15058 5.96386 79.08347 -2.75854 -1.02568 31.21625 5.4788 -5.76774 10.14056 -83.81196 -4.52078 2.31921 -5.20472 6.49262 7.26593 -4.68524 1.78559 -2.88499 -4.65887 2.71385 1.67303 -13.89754 -20.74426 10.23916 8.15398 13.15804
-0.00583 0.95233 0.03167 192.7941 0 -4.38644 8.42338 5.68077 -7.59158 -25.1569 2.8192 -0.42849 20.4553 -15.1836 -28.42256 5.95927 78.30148 -2.97484 -0.71082 28.47368 5.27708 1.33905 9.06285 -82.29276 -4.53634 1.6628 -5.05925 6.2692 7.4129 -5.11066 1.96293 -2.96465 -4.88496 1.78 1.63068 -12.91597 -19.00206 9.95311 7.94475 12.73833
-0.0066 0.95259 0.03535 192.64996 0 -4.32884 8.38395 5.53175 -7.69954 -24.73697 3.10271 -0.31996 18.69844 -15.34718 -31.65774 5.89396 77.58838 -3.17576 -0.39887 25.79604 5.08209 7.92868 7.99687 -80.86882 -4.47386 1.01989 -4.94148 6.06896 7.55064 -5.48823 2.12673 -3.03888 -5.09129 0.87723 1.61272 -12.1645 -17.36005 9.68811 7.75171 12.33913
-0.00748 0.95289 0.0391 192.50431 0 -4.25686 8.35677 5.3661 -7.83623 -24.34448 3.42863 -0.19765 16.91814 -15.57203 -35.10048 5.83313 76.78279 -3.40497 -0.08091 23.07204 4.84025 13.99115 6.80545 -79.23411 -4.36871 0.27204 -4.82443 5.85277 7.67377 -5.87824 2.30299 -3.10955 -5.29395 -0.08967 1.59526 -11.3239 -15.59352 9.4058 7.55255 11.92558
-0.00808 0.95315 0.04273 192.35893 0 -4.205 8.29885 5.22242 -7.91323 -23.88213 3.66181 -0.10998 15.17886 -15.64945 -38.10035 5.79427 76.14489 -3.57968 0.2254 20.42006 4.69974 21.43198 5.8856 -78.00819 -4.39563 -0.252 -4.69072 5.66008 7.83459 -6.26577 2.45842 -3.19056 -5.51479 -0.92819 1.56434 -10.55477 -14.05487 9.1508 7.35856 11.53468
-0.00802 0.95328 0.04602 192.23128 0 -4.21841 8.16261 5.15216 -7.83163 -23.24778 3.64105 -0.12058 13.54273 -15.33317 -39.88754 5.78237 76.00414 -3.59712 0.49981 17.98399 4.83151 32.80592 5.7142 -77.96442 -4.74532 -0.14542 -4.52981 5.54233 8.07874 -6.62262 2.55437 -3.29973 -5.77649 -1.39394 1.50865 -10.1104 -13.2065 8.98502 7.18986 11.22064
